REM MD5 3a59c6abf9b7e8d92dba5a300b19a6ec
FILE "Memories Off 2nd (Japan) (Disc 2).bin" BINARY
  TRACK 01 MODE2/2352
    INDEX 01 00:00:00
  TRACK 02 AUDIO
    INDEX 00 64:54:70
    INDEX 01 64:56:70
  TRACK 03 AUDIO
    INDEX 00 67:37:74
    INDEX 01 67:39:74
REM LEADOUT 69:10:32
